# xmcd
#
# Track frame offsets: 
#        150
#        16798
#        33606
#        50679
#        65527
#        82846
#        99610
#        116475
#        132005
#        148458
#        168029
#
# Disc length: 2477 seconds
#
# Revision: 1
# Processed by: cddbd v1.5.2PL0 Copyright (c) Steve Scherf et al.
# Submitted via: ExactAudioCopyFreeDBPlugin 1.0
#
DISCID=8f09ab0b
DTITLE=Petra - Rakas Kaupunki
DYEAR=2009
DGENRE=Pop
TTITLE0=Kaikki Ja Heti Nyt
TTITLE1=Kesän Ensimmäisenä Lämpimänä Yönä
TTITLE2=Valtameri
TTITLE3=Kuka Mä Oon
TTITLE4=Valta
TTITLE5=Kaikki Muut
TTITLE6=Lalaalaa
TTITLE7=Pakomatkalla
TTITLE8=Talo
TTITLE9=Katuvalot
TTITLE10=Rakas Kaupunki
EXTD=
EXTT0=
EXTT1=
EXTT2=
EXTT3=
EXTT4=
EXTT5=
EXTT6=
EXTT7=
EXTT8=
EXTT9=
EXTT10=
PLAYORDER=
